<?xml version="1.0" encoding="utf-8"?>
<!-- Generator: Adobe Illustrator 25.0.1, SVG Export Plug-In . SVG Version: 6.00 Build 0)  -->
<svg version="1.0" id="Layer_1" xmlns="http://www.w3.org/2000/svg" xmlns:xlink="http://www.w3.org/1999/xlink" x="0px" y="0px"
	 viewBox="0 0 864.2 574.3" style="enable-background:new 0 0 864.2 574.3;" xml:space="preserve">
<style type="text/css">
	.st0{clip-path:url(#SVGID_2_);}
</style>
<g>
	<defs>
		<rect id="SVGID_1_" x="64" y="191.3" width="736" height="191.7"/>
	</defs>
	<clipPath id="SVGID_2_">
		<use xlink:href="#SVGID_1_"  style="overflow:visible;"/>
	</clipPath>
	<g class="st0">
		<path d="M550,296.2c5.1,0.1,9.2-3.9,9.3-9c0.1-5.1-3.9-9.2-9-9.3c-5.1-0.1-9.2,3.9-9.3,9c0,0.1,0,0.1,0,0.2
			c-0.1,5,3.9,9.1,8.8,9.2C549.9,296.2,549.9,296.2,550,296.2z M796.2,216.6h-23.1c-1.7,0-3.1,1.2-3.6,2.8l-17,68.2h-0.8l-30.6-70.7
			c-0.2-0.7-0.7-1.3-1.3-1.7c-0.6-0.4-1.4-0.7-2.1-0.6h-3.6c-1.4,0-2.7,0.9-3.2,2.2l-30.7,70.7h-0.8l-17-68.1
			c-7.5,8.1-15.8,15.5-24.7,22.1l31.8,115.1c0.3,1.7,1.8,3,3.6,2.8h3.1c1.4,0,2.7-0.8,3.4-2.1l36-82.3h0.6l36.1,82.4
			c0.6,1.3,1.9,2.2,3.4,2.2h3.3c1.7,0.1,3.3-1.1,3.6-2.8l37.3-135.2c0.8-1.8,0-3.9-1.8-4.8c0,0,0,0,0,0
			C797.5,216.6,796.9,216.6,796.2,216.6L796.2,216.6z M543.5,299.9c-1.4-1.9-4-2.4-6-1.2c-14.2,8.4-62.1,36.7-76.8,64.1
			c-12.4,23.4,13.7,21.4,28.6,18.6c6.6-1.2,12.8-4,18-8.3c21.9-16.8,35.5-42.3,37.1-69.8C544.5,302,544.2,300.8,543.5,299.9
			L543.5,299.9z M513.5,302.4c-6-14.9-2.8-32,8.4-43.6c7.3-7.5,17.2-11.8,27.6-12c2.2-11,6.3-21.6,12-31.2
			c-13.1-2.3-26.7-0.7-38.9,4.5c-17.6,7.4-31.4,21.6-38.4,39.4c-3.6,8.8-5.3,18.2-5.3,27.7c0,10.3,2.1,20.5,6.3,30
			C494.3,311.7,503.8,306.8,513.5,302.4L513.5,302.4z M614.2,256.2c-9.1,5.7-18.4,10.9-27.9,15.6c7.5,18.5,0.4,39.7-16.6,50
			c-5.5,3.2-11.6,5.1-18,5.4c-1.8,11.1-5.6,21.8-11.1,31.6c22,2.9,44-4.7,59.7-20.4c13.5-13.7,21-32.1,20.8-51.4
			C621,276.4,618.7,265.8,614.2,256.2L614.2,256.2z M468.4,328.2c-0.5-0.2-1-0.4-1.6-0.4h-47.1V220.4c0-1-0.5-2-1.2-2.6
			c-0.7-0.7-1.6-1.2-2.6-1.2h-23.5c-1,0-2,0.4-2.6,1.2c-0.7,0.7-1.1,1.7-1.1,2.6v133.3c0,1,0.4,2,1.1,2.7c0.7,0.7,1.7,1.1,2.7,1.1
			h44.6C446.2,346.4,456.7,336.5,468.4,328.2L468.4,328.2z M556.4,274.1c1.4,1.9,4,2.4,6,1.3c14.3-8.4,63.2-36.2,78-63.9
			c12.5-23.3-13.6-21.3-28.6-18.5c-6.6,1.3-12.8,4.1-18,8.3c-13.8,11-35.6,31.3-38.3,69.5C555.5,271.9,555.8,273.1,556.4,274.1
			L556.4,274.1z M288,220.4c0-2.1,1.6-3.7,3.7-3.8c0,0,0.1,0,0.1,0h23.5c1,0,1.9,0.4,2.6,1.1c0.7,0.7,1.1,1.7,1.1,2.6v107.5h47
			c2.1,0,3.8,1.7,3.8,3.8v21.9c0,1-0.4,2-1.2,2.7c-0.7,0.7-1.6,1.1-2.6,1.1h-74.3c-1,0-1.9-0.4-2.6-1.1c-0.7-0.7-1.1-1.7-1.1-2.7
			L288,220.4L288,220.4z M173.8,220.4c0-1,0.4-2,1.1-2.7c0.7-0.7,1.6-1.1,2.6-1.1h81.8c1,0,2,0.4,2.7,1.1c0.7,0.7,1.1,1.7,1.1,2.7
			v22c0,1-0.4,2-1.1,2.7c-0.7,0.7-1.7,1.1-2.7,1.1h-54.7v25h44.9c1,0,2,0.4,2.7,1.1c0.7,0.7,1.1,1.7,1.2,2.7v21.9c0,1-0.4,2-1.1,2.7
			c-0.7,0.7-1.6,1.1-2.6,1.1h-45v27.1h54.6c1,0,2,0.4,2.7,1.1c0.7,0.7,1.1,1.7,1.1,2.7v21.9c0,1-0.4,2-1.1,2.7
			c-0.7,0.7-1.6,1.1-2.6,1.1h-81.8c-1,0-1.9-0.4-2.6-1.1c-0.7-0.7-1.1-1.7-1.1-2.8L173.8,220.4L173.8,220.4z M64,220.4
			c0-1,0.4-2,1.1-2.7c0.7-0.7,1.7-1.1,2.7-1.1h81.8c1,0,2,0.4,2.6,1.1c0.7,0.7,1.1,1.7,1.1,2.7v22c0,1-0.4,2-1.1,2.7
			c-0.7,0.7-1.6,1.1-2.6,1.1H94.8v29h45c1,0,2,0.4,2.6,1.2c0.7,0.7,1.2,1.6,1.2,2.6v21.9c0,1-0.5,1.9-1.2,2.6
			c-0.7,0.7-1.6,1.2-2.6,1.2H94.8v48.8c-0.1,1-0.5,2-1.2,2.7c-0.7,0.7-1.6,1.2-2.6,1.2H67.7c-1,0-2-0.4-2.6-1.2
			c-0.7-0.7-1.1-1.6-1.1-2.6V220.4z"/>
	</g>
</g>
</svg>
