<svg class="svg-icon" style="width: 1em; height: 1em;vertical-align: middle;fill: currentColor;overflow: hidden;" viewBox="0 0 1024 1024" version="1.1" xmlns="http://www.w3.org/2000/svg"><path d="M581.999909 331.999948a39.999994 39.999994 0 1 1 79.999988 0v359.999944a39.999994 39.999994 0 1 1-79.999988 0v-359.999944z m292.039954-182.039971C970.743848 246.663961 1023.99984 375.239941 1023.99984 511.99992c0 101.063984-29.999995 199.343969-86.751986 284.231956a39.999994 39.999994 0 1 1-66.50399-44.463993C918.671856 680.087894 943.999853 597.175907 943.999853 511.99992c0-238.207963-193.79197-431.999933-431.999933-431.999932S79.999988 273.791957 79.999988 511.99992s193.79197 431.999933 431.999932 431.999933a431.199933 431.199933 0 0 0 223.471965-62.207991 39.999994 39.999994 0 0 1 41.447994 68.42399A511.19992 511.19992 0 0 1 511.99992 1023.99984c-136.759979 0-265.335959-53.255992-362.039943-149.959977C53.255992 777.335879 0 648.759899 0 511.99992c0-136.759979 53.255992-265.335959 149.959977-362.039943C246.663961 53.255992 375.239941 0 511.99992 0c136.759979 0 265.335959 53.255992 362.039943 149.959977zM361.999943 331.999948a39.999994 39.999994 0 1 1 79.999988 0v359.999944a39.999994 39.999994 0 1 1-79.999988 0v-359.999944z" fill="#4A90E2" /></svg>