<svg class="svg-icon" style="width: 1em; height: 1em;vertical-align: middle;fill: currentColor;overflow: hidden;" viewBox="0 0 1024 1024" version="1.1" xmlns="http://www.w3.org/2000/svg"><path d="M505.6 1016C235.2 1016 14.4 795.2 14.4 524.8S233.6 32 505.6 32s491.2 220.8 491.2 491.2-220.8 492.8-491.2 492.8z m0-920C268.8 96 76.8 288 76.8 524.8c0 235.2 192 427.2 427.2 427.2s427.2-192 427.2-427.2C932.8 288 740.8 96 505.6 96z" fill="#43484D" /><path d="M408 737.6c-4.8 0-9.6-1.6-14.4-3.2-11.2-4.8-17.6-16-17.6-28.8V318.4c0-11.2 6.4-22.4 17.6-28.8 11.2-4.8 22.4-4.8 33.6 1.6l289.6 193.6c9.6 6.4 14.4 16 14.4 27.2s-4.8 20.8-14.4 27.2L425.6 732.8c-4.8 3.2-11.2 4.8-17.6 4.8z m32-358.4v267.2L641.6 512l-201.6-132.8z" fill="#229BFF" /></svg>